<?xml version="1.0" standalone="no"?>
<!DOCTYPE svg PUBLIC "-//W3C//DTD SVG 20010904//EN"
 "http://www.w3.org/TR/2001/REC-SVG-20010904/DTD/svg10.dtd">
<svg version="1.0" xmlns="http://www.w3.org/2000/svg"
 width="260.000000pt" height="260.000000pt" viewBox="0 0 260.000000 260.000000"
 preserveAspectRatio="xMidYMid meet">
<metadata>
Created by potrace 1.14, written by Peter Selinger 2001-2017
</metadata>
<g transform="translate(0.000000,260.000000) scale(0.100000,-0.100000)"
fill="#000000" stroke="none">
<path d="M1194 2288 c-38 -10 -79 -21 -91 -25 -13 -3 -23 -9 -23 -14 0 -4 10
-5 23 -2 53 13 164 32 182 32 20 -1 -19 -11 -87 -23 -46 -8 -51 -27 -5 -21 19
3 12 -1 -17 -9 -173 -51 -388 -223 -503 -403 -94 -147 -141 -303 -140 -461 1
-179 51 -362 108 -392 31 -17 34 -5 9 34 -12 20 -20 42 -18 48 3 7 16 -13 31
-45 29 -63 58 -81 31 -20 -27 65 -34 83 -29 83 2 0 14 -22 26 -50 25 -58 45
-78 61 -62 8 8 2 32 -21 89 -51 128 -62 186 -63 323 0 69 0 135 1 148 1 26 16
30 18 5 4 -43 12 -150 12 -170 1 -13 5 -23 10 -23 4 0 9 32 9 70 1 86 18 174
38 191 17 14 16 14 36 -28 11 -21 12 -33 5 -36 -6 -2 -11 -22 -13 -46 -1 -23
-4 -45 -8 -48 -11 -11 -6 -21 13 -26 16 -4 18 1 17 42 -2 48 12 101 27 101 4
0 6 -4 3 -9 -8 -12 -15 -114 -8 -107 3 3 16 47 29 97 13 50 40 119 59 153 35
61 120 156 138 156 5 0 17 6 25 13 14 11 38 22 146 62 11 5 25 9 30 11 24 6
65 24 65 29 0 3 -12 3 -27 1 -20 -4 -24 -3 -14 7 15 15 119 19 127 5 4 -7 2
-8 -4 -4 -7 4 -12 3 -12 -2 0 -6 24 -12 54 -14 43 -2 52 0 48 11 -4 10 -1 12
9 5 8 -5 21 -9 29 -10 8 0 31 -8 50 -17 19 -9 25 -14 13 -11 -37 9 -26 -4 20
-24 133 -60 255 -217 321 -414 31 -93 37 -120 36 -188 0 -60 -2 -80 -12 -95
-3 -5 -13 -37 -22 -70 -63 -225 -159 -359 -324 -456 -45 -25 -59 -40 -59 -56
-1 -27 3 -28 23 -8 9 8 23 15 32 15 11 0 1 -15 -30 -44 -52 -47 -62 -72 -25
-63 20 6 20 4 -5 -18 -34 -29 -34 -30 -7 -32 34 -3 34 -10 -5 -53 -20 -22 -36
-42 -36 -45 0 -11 114 6 200 30 83 24 110 30 142 34 7 1 115 88 149 121 58 54
142 191 199 325 46 107 76 283 74 425 -1 63 -4 124 -7 135 -3 11 -10 43 -17
70 -6 28 -16 70 -22 95 -22 92 -105 269 -158 334 -99 122 -166 181 -296 259
-119 71 -150 84 -209 91 l-50 6 40 -13 c24 -8 35 -16 28 -20 -6 -4 -14 -3 -18
3 -4 6 -10 8 -14 5 -5 -2 -21 -1 -37 3 -16 5 -42 5 -59 1 -28 -6 -28 -7 10 -8
22 -1 57 -5 78 -10 21 -5 39 -5 43 0 8 14 56 11 51 -3 -3 -10 -44 -13 -160
-13 -86 0 -157 3 -157 8 0 4 14 7 30 7 17 0 30 4 30 9 0 4 -14 7 -32 5 -17 -2
-29 -2 -26 1 7 8 48 15 98 18 22 1 40 6 40 10 0 15 -184 4 -256 -15z m103 -44
c-3 -3 -12 -4 -19 -1 -8 3 -5 6 6 6 11 1 17 -2 13 -5z m-232 -110 c-24 -19
-95 -56 -95 -50 0 5 102 66 110 65 3 0 -4 -7 -15 -15z m182 -45 c-11 -6 -25
-12 -31 -13 -7 -1 -24 -9 -37 -17 -13 -9 -35 -20 -48 -24 -25 -8 -109 -64
-148 -99 -13 -11 -23 -16 -23 -11 0 8 -67 -61 -135 -140 -16 -19 -33 -35 -38
-35 -16 0 24 60 71 106 119 120 180 161 322 220 58 24 101 32 67 13z m707
-175 c76 -74 176 -213 176 -244 0 -8 -10 3 -21 25 -12 22 -25 42 -28 45 -4 3
-28 32 -53 65 -50 66 -211 225 -228 225 -5 0 -10 5 -10 10 0 18 81 -44 164
-126z m-1069 78 l-28 -27 24 31 c13 17 26 30 28 27 3 -2 -8 -16 -24 -31z m726
-24 c52 -18 131 -80 195 -154 33 -37 76 -85 97 -106 23 -22 33 -38 24 -38 -8
0 -57 44 -108 98 -109 114 -150 147 -216 172 -75 28 -68 55 8 28z m-771 -21
c0 -2 -10 -12 -22 -23 l-23 -19 19 23 c18 21 26 27 26 19z m370 -11 c0 -2 -7
-7 -16 -10 -8 -3 -12 -2 -9 4 6 10 25 14 25 6z m-444 -141 c-14 -30 -30 -62
-36 -72 -19 -31 0 26 26 80 33 64 39 60 10 -8z m129 -114 c-17 -34 -28 -41
-19 -13 5 14 3 14 -10 -2 -9 -11 -16 -24 -16 -30 0 -5 -2 -7 -5 -4 -3 3 2 22
11 42 12 24 20 32 25 24 6 -9 10 -8 15 5 3 10 8 16 11 13 2 -2 -3 -18 -12 -35z
m-204 -112 c-5 -13 -10 -19 -10 -12 -1 15 10 45 15 40 3 -2 0 -15 -5 -28z
m1482 1 c3 -11 3 -20 1 -20 -2 0 -8 9 -14 20 -6 11 -7 20 -2 20 6 0 12 -9 15
-20z m36 -167 c1 -7 -3 -13 -7 -13 -4 0 -8 17 -9 38 -1 32 0 34 7 12 4 -14 8
-31 9 -37z m5 -122 c2 -51 2 -90 -2 -87 -3 3 -7 47 -9 98 -2 51 -2 90 1 87 3
-3 7 -47 10 -98z m-1598 23 c1 -9 0 -13 -4 -10 -3 4 -7 14 -8 22 -1 9 0 13 4
10 3 -4 7 -14 8 -22z m14 -84 c0 -5 -2 -10 -4 -10 -3 0 -8 5 -11 10 -3 6 -1
10 4 10 6 0 11 -4 11 -10z m-2 -145 c-3 -3 -9 2 -12 12 -6 14 -5 15 5 6 7 -7
10 -15 7 -18z m1212 -450 c-7 -8 -17 -15 -23 -15 -6 0 -2 7 9 15 25 19 30 19
14 0z m-50 -45 c0 -5 -5 -10 -11 -10 -5 0 -7 5 -4 10 3 6 8 10 11 10 2 0 4 -4
4 -10z"/>
<path d="M1055 2240 c-3 -5 -1 -10 4 -10 6 0 11 5 11 10 0 6 -2 10 -4 10 -3 0
-8 -4 -11 -10z"/>
<path d="M1125 2230 c4 -6 11 -8 16 -5 14 9 11 15 -7 15 -8 0 -12 -5 -9 -10z"/>
<path d="M1090 2220 c-9 -6 -10 -10 -3 -10 6 0 15 5 18 10 8 12 4 12 -15 0z"/>
<path d="M960 2198 c-84 -50 -142 -91 -190 -135 -132 -120 -237 -334 -257
-523 -6 -62 3 -65 13 -4 15 97 107 288 184 379 77 91 168 172 262 233 32 20
58 40 58 45 0 8 -65 -23 -122 -60 -64 -40 -42 -16 34 37 72 51 82 65 18 28z"/>
<path d="M1350 1962 c0 -5 7 -9 15 -9 8 0 12 4 9 9 -3 4 -9 8 -15 8 -5 0 -9
-4 -9 -8z"/>
<path d="M540 1054 c0 -16 57 -133 84 -173 45 -67 42 -34 -3 41 -22 36 -46 82
-55 102 -13 32 -26 47 -26 30z"/>
<path d="M153 804 c-27 -12 15 -64 90 -111 39 -25 177 -86 177 -78 0 2 37 -10
82 -26 117 -41 147 -69 177 -160 22 -66 42 -98 62 -99 4 0 17 29 30 65 12 36
24 63 27 61 2 -3 -6 -32 -19 -66 -23 -63 -21 -73 19 -85 17 -5 24 -1 32 17 10
22 10 21 5 -4 -3 -16 -1 -28 5 -28 5 0 9 3 8 8 0 4 1 14 5 22 38 99 117 314
117 321 0 5 -4 9 -10 9 -5 0 -10 -9 -10 -20 0 -11 -4 -20 -10 -20 -6 0 -6 9 0
25 9 22 7 27 -16 35 -34 13 -33 14 -50 -22 -14 -32 -14 -11 1 24 5 13 0 19
-19 24 -19 5 -39 -2 -77 -26 -82 -53 -125 -51 -245 12 -149 77 -169 86 -216
103 -48 16 -146 28 -165 19z m93 -28 c18 -14 18 -15 1 -21 -19 -8 -50 12 -41
26 7 13 17 11 40 -5z m600 -204 c-8 -16 -12 -32 -9 -36 4 -3 1 -6 -5 -6 -7 0
-12 2 -12 5 0 10 34 74 38 71 2 -2 -3 -17 -12 -34z m87 13 c-3 -9 -8 -14 -10
-11 -3 3 -2 9 2 15 9 16 15 13 8 -4z m-13 -40 c0 -8 -4 -15 -10 -15 -5 0 -7 7
-4 15 4 8 8 15 10 15 2 0 4 -7 4 -15z m-110 -62 c-11 -17 -11 -17 -6 0 3 10 6
24 7 30 0 9 2 9 5 0 3 -7 0 -20 -6 -30z m88 12 c-6 -14 -13 -23 -15 -21 -5 5
15 46 22 46 3 0 -1 -11 -7 -25z m-38 -100 c-10 -27 -19 -45 -20 -40 0 15 34
108 37 98 2 -4 -6 -30 -17 -58z"/>
<path d="M927 468 c-49 -130 -62 -176 -53 -185 17 -18 157 -43 240 -43 71 0
75 1 100 31 14 17 26 35 26 41 0 6 12 22 28 36 l27 26 -25 6 c-24 6 -24 7 11
18 22 8 47 27 63 50 l26 37 -41 3 -41 3 63 30 c62 29 118 80 119 107 0 9 -7
11 -19 7 -118 -37 -305 -40 -421 -5 -19 5 -35 10 -36 10 -1 0 -31 -78 -67
-172z"/>
<path d="M1473 480 c-27 -11 -46 -46 -40 -70 4 -14 -2 -20 -25 -25 -16 -4 -27
-9 -24 -13 3 -3 1 -11 -5 -18 -21 -25 12 -26 51 0 61 40 73 76 26 76 -18 0
-16 4 12 21 17 12 32 25 32 30 0 5 -1 9 -2 8 -2 0 -13 -4 -25 -9z"/>
</g>
</svg>
